<?xml version="1.0" encoding="UTF-8"?>
<!DOCTYPE svg PUBLIC "-//W3C//DTD SVG 1.1//EN" "http://www.w3.org/Graphics/SVG/1.1/DTD/svg11.dtd">
<svg xmlns="http://www.w3.org/2000/svg" version="1.1" width="192px" height="192px" style="shape-rendering:geometricPrecision; text-rendering:geometricPrecision; image-rendering:optimizeQuality; fill-rule:evenodd; clip-rule:evenodd" xmlns:xlink="http://www.w3.org/1999/xlink">
<g><path style="opacity:0.236" fill="#242227" d="M 191.5,67.5 C 191.5,71.8333 191.5,76.1667 191.5,80.5C 190.162,91.415 188.496,102.415 186.5,113.5C 185.833,113.833 185.167,114.167 184.5,114.5C 180.221,113.726 175.887,113.226 171.5,113C 170.584,112.722 169.918,112.222 169.5,111.5C 170.167,109.5 170.833,107.5 171.5,105.5C 171.5,107.5 171.5,109.5 171.5,111.5C 176.167,111.5 180.833,111.5 185.5,111.5C 186.723,99.3063 188.057,87.1396 189.5,75C 190.302,67.47 186.968,64.47 179.5,66C 177.19,67.6374 175.69,69.804 175,72.5C 173.065,70.8978 170.899,69.7311 168.5,69C 161.365,68.1088 154.365,68.6088 147.5,70.5C 146.167,70.3333 144.833,70.1667 143.5,70C 142.259,67.4372 140.926,64.9372 139.5,62.5C 134.022,71.449 129.022,80.7823 124.5,90.5C 124.043,91.2975 123.376,91.6309 122.5,91.5C 121.957,91.44 121.624,91.1067 121.5,90.5C 123.041,88.796 124.375,86.9626 125.5,85C 125.138,83.7753 124.638,82.6086 124,81.5C 120.52,78.8431 116.687,76.8431 112.5,75.5C 115.005,73.7467 117.671,72.2467 120.5,71C 121.022,70.4387 121.355,69.772 121.5,69C 119.377,65.2134 116.877,61.7134 114,58.5C 108.376,63.12 103.876,68.62 100.5,75C 101.195,77.866 99.8621,79.6993 96.5,80.5C 92.2079,77.5434 88.2079,74.2101 84.5,70.5C 83.081,72.3359 81.9143,74.3359 81,76.5C 80.5045,74.5273 80.3379,72.5273 80.5,70.5C 74.4784,72.285 68.4784,74.285 62.5,76.5C 61.513,79.7683 61.1796,83.1016 61.5,86.5C 62.5,86.5 63.5,86.5 64.5,86.5C 64.5,87.8333 64.5,89.1667 64.5,90.5C 60.8183,90.3347 57.1516,90.5014 53.5,91C 52.5838,91.3742 51.7504,91.8742 51,92.5C 50.5932,82.4209 45.4265,76.2542 35.5,74C 23.1798,71.831 12.1798,74.6643 2.5,82.5C 1.38615,83.723 1.21948,85.0563 2,86.5C 4,89.8333 6,93.1667 8,96.5C 9.80652,98.6936 12.1399,100.027 15,100.5C 19.7945,111.083 24.2945,121.75 28.5,132.5C 33.5856,131.455 38.5856,130.122 43.5,128.5C 43.0618,122.31 41.7285,116.31 39.5,110.5C 39.4528,109 40.1195,108 41.5,107.5C 45.003,122.306 53.3363,125.64 66.5,117.5C 67.4519,119.045 67.7852,120.712 67.5,122.5C 70.5176,122.296 73.5176,121.963 76.5,121.5C 73.5917,122.816 70.5917,123.816 67.5,124.5C 66.735,123.34 65.735,122.34 64.5,121.5C 57.9413,124.424 51.6079,124.091 45.5,120.5C 45.5331,123.639 45.1998,126.805 44.5,130C 40.4902,131.34 36.4902,132.673 32.5,134C 30.7412,134.798 29.0745,134.631 27.5,133.5C 22.5591,123.285 17.8925,112.952 13.5,102.5C 11.6587,101.77 9.82541,101.103 8,100.5C 5.39223,95.6032 2.55889,90.9365 -0.5,86.5C -0.5,84.8333 -0.5,83.1667 -0.5,81.5C 10.2264,73.7619 22.2264,70.5952 35.5,72C 45.3243,73.8243 51.1577,79.6576 53,89.5C 55.0408,88.5769 57.2075,88.2436 59.5,88.5C 59.7592,84.7604 59.4259,81.0938 58.5,77.5C 58.9767,76.5224 59.6433,75.6891 60.5,75C 68.3152,71.4392 76.3152,69.2726 84.5,68.5C 88.7851,71.6112 92.9517,74.9445 97,78.5C 97.966,75.3558 99.2994,72.3558 101,69.5C 104.679,64.4876 109.012,60.1543 114,56.5C 118.373,60.0491 121.873,64.3824 124.5,69.5C 122.936,72.2855 120.602,74.1189 117.5,75C 120.919,76.5857 123.919,78.7524 126.5,81.5C 129.845,76.1434 132.678,70.4767 135,64.5C 136.259,60.7767 138.592,59.7767 142,61.5C 142.585,64.6199 143.919,67.2866 146,69.5C 155.419,65.6311 164.752,65.6311 174,69.5C 178.964,62.2341 184.798,61.5675 191.5,67.5 Z M 170.5,93.5 C 171.097,93.7352 171.43,94.2352 171.5,95C 171.022,97.2256 170.355,99.3923 169.5,101.5C 166.732,98.1695 167.065,95.5029 170.5,93.5 Z"/></g>
<g><path style="opacity:1" fill="#f0c020" d="M 156.5,108.5 C 157.699,112.099 158.699,115.765 159.5,119.5C 156.428,119.817 153.428,119.484 150.5,118.5C 147.391,111.949 144.558,105.282 142,98.5C 139.925,96.3517 137.592,96.0183 135,97.5C 132.731,103.319 129.898,108.819 126.5,114C 123.183,114.498 119.85,114.665 116.5,114.5C 117.167,112.5 117.833,110.5 118.5,108.5C 121.07,105.418 123.903,102.418 127,99.5C 127.624,97.5355 127.124,95.8689 125.5,94.5C 129.911,86.0856 134.411,77.7523 139,69.5C 144.866,82.5596 150.7,95.5596 156.5,108.5 Z"/></g>
<g><path style="opacity:1" fill="#3c5c98" d="M 122.5,91.5 C 121.71,92.4013 120.71,93.0679 119.5,93.5C 116.995,93.9802 114.662,94.9802 112.5,96.5C 112.167,96.1667 111.833,95.8333 111.5,95.5C 114.701,92.1358 117.701,88.6358 120.5,85C 119.513,82.6794 117.846,81.0128 115.5,80C 108.135,78.0516 101.968,79.8849 97,85.5C 92.3543,93.8578 94.1876,100.358 102.5,105C 106.152,105.499 109.818,105.665 113.5,105.5C 114.552,105.351 115.552,105.517 116.5,106C 115.66,107.666 116.16,107.833 118,106.5C 118.464,107.094 118.631,107.761 118.5,108.5C 117.833,110.5 117.167,112.5 116.5,114.5C 120.295,115.617 124.295,116.283 128.5,116.5C 122.987,117.816 117.32,117.816 111.5,116.5C 112.706,113.921 114.039,111.421 115.5,109C 114.101,108.405 112.768,108.572 111.5,109.5C 110.508,113.783 110.174,118.116 110.5,122.5C 101.048,118.858 91.8815,114.525 83,109.5C 82.6667,113.167 82.3333,116.833 82,120.5C 80.3005,121.406 78.4672,121.739 76.5,121.5C 73.5176,121.963 70.5176,122.296 67.5,122.5C 67.7852,120.712 67.4519,119.045 66.5,117.5C 53.3363,125.64 45.003,122.306 41.5,107.5C 40.1195,108 39.4528,109 39.5,110.5C 41.7285,116.31 43.0618,122.31 43.5,128.5C 38.5856,130.122 33.5856,131.455 28.5,132.5C 24.2945,121.75 19.7945,111.083 15,100.5C 12.1399,100.027 9.80652,98.6936 8,96.5C 6,93.1667 4,89.8333 2,86.5C 1.21948,85.0563 1.38615,83.723 2.5,82.5C 12.1798,74.6643 23.1798,71.831 35.5,74C 45.4265,76.2542 50.5932,82.4209 51,92.5C 51.7504,91.8742 52.5838,91.3742 53.5,91C 57.1516,90.5014 60.8183,90.3347 64.5,90.5C 64.5,89.1667 64.5,87.8333 64.5,86.5C 63.5,86.5 62.5,86.5 61.5,86.5C 61.1796,83.1016 61.513,79.7683 62.5,76.5C 68.4784,74.285 74.4784,72.285 80.5,70.5C 80.3379,72.5273 80.5045,74.5273 81,76.5C 81.9143,74.3359 83.081,72.3359 84.5,70.5C 88.2079,74.2101 92.2079,77.5434 96.5,80.5C 99.8621,79.6993 101.195,77.866 100.5,75C 103.876,68.62 108.376,63.12 114,58.5C 116.877,61.7134 119.377,65.2134 121.5,69C 121.355,69.772 121.022,70.4387 120.5,71C 117.671,72.2467 115.005,73.7467 112.5,75.5C 116.687,76.8431 120.52,78.8431 124,81.5C 124.638,82.6086 125.138,83.7753 125.5,85C 124.375,86.9626 123.041,88.796 121.5,90.5C 121.624,91.1067 121.957,91.44 122.5,91.5 Z"/></g>
<g><path style="opacity:1" fill="#e7b922" d="M 111.5,64.5 C 115,64.4954 116.5,66.1621 116,69.5C 112.634,71.6012 109.134,73.2679 105.5,74.5C 105.351,73.448 105.517,72.448 106,71.5C 108.454,69.5588 110.287,67.2254 111.5,64.5 Z"/></g>
<g><path style="opacity:1" fill="#f0c020" d="M 76.5,79.5 C 76.1924,81.924 76.5258,84.2573 77.5,86.5C 78.1067,86.3764 78.44,86.0431 78.5,85.5C 80.2805,82.5461 82.2805,79.7128 84.5,77C 88.5494,77.6865 91.5494,80.0198 93.5,84C 90.7161,87.787 87.5494,91.287 84,94.5C 83.3333,95.1667 83.3333,95.8333 84,96.5C 87.1493,97.9964 90.3159,99.4964 93.5,101C 96.4752,105.8 100.809,108.3 106.5,108.5C 106.5,111.167 106.5,113.833 106.5,116.5C 97.6002,113.051 88.9335,109.051 80.5,104.5C 80.44,103.957 80.1067,103.624 79.5,103.5C 78.5067,108.12 78.1734,112.786 78.5,117.5C 75.9455,118.388 73.2788,118.721 70.5,118.5C 70.3979,113.474 71.0646,108.641 72.5,104C 73.0385,100.167 71.8718,97.0002 69,94.5C 68.5012,90.5138 68.3345,86.5138 68.5,82.5C 67.1667,82.5 65.8333,82.5 64.5,82.5C 64.33,81.1779 64.6634,80.0113 65.5,79C 69.0314,77.5936 72.6981,76.7603 76.5,76.5C 76.5,77.5 76.5,78.5 76.5,79.5 Z"/></g>
<g><path style="opacity:1" fill="#b59633" d="M 36.5,78.5 C 29.0455,78.1518 21.7121,78.8185 14.5,80.5C 16.2774,79.3995 18.2774,78.5662 20.5,78C 26.0164,77.1826 31.3497,77.3493 36.5,78.5 Z"/></g>
<g><path style="opacity:1" fill="#f5c31e" d="M 36.5,78.5 C 46.8017,82.1121 49.3017,88.7788 44,98.5C 41.2642,102.057 38.4309,105.39 35.5,108.5C 37.1526,114.092 37.9859,119.759 38,125.5C 35.6985,126.867 33.1985,127.534 30.5,127.5C 26.1276,116.417 21.4609,105.417 16.5,94.5C 14.5988,93.7691 12.5988,93.7691 10.5,94.5C 9.45651,91.4095 8.12318,88.4095 6.5,85.5C 8.47605,82.8394 11.1427,81.1727 14.5,80.5C 21.7121,78.8185 29.0455,78.1518 36.5,78.5 Z"/></g>
<g><path style="opacity:1" fill="#edbe21" d="M 119.5,93.5 C 121.016,95.1857 122.35,97.019 123.5,99C 120.609,101.939 117.276,104.106 113.5,105.5C 109.818,105.665 106.152,105.499 102.5,105C 94.1876,100.358 92.3543,93.8578 97,85.5C 101.968,79.8849 108.135,78.0516 115.5,80C 117.846,81.0128 119.513,82.6794 120.5,85C 117.701,88.6358 114.701,92.1358 111.5,95.5C 111.833,95.8333 112.167,96.1667 112.5,96.5C 114.662,94.9802 116.995,93.9802 119.5,93.5 Z"/></g>
<g><path style="opacity:1" fill="#79714b" d="M 76.5,79.5 C 77.1667,81.5 77.8333,83.5 78.5,85.5C 78.44,86.0431 78.1067,86.3764 77.5,86.5C 76.5258,84.2573 76.1924,81.924 76.5,79.5 Z"/></g>
<g><path style="opacity:1" fill="#405d96" d="M 171.5,105.5 C 172.11,104.609 172.443,103.609 172.5,102.5C 173.167,104.5 173.833,106.5 174.5,108.5C 177.287,109.477 180.287,109.81 183.5,109.5C 184.046,99.8244 184.713,90.1577 185.5,80.5C 182.5,81.1667 179.5,81.8333 176.5,82.5C 175.833,80.5 175.167,78.5 174.5,76.5C 172.88,74.0158 170.547,72.5158 167.5,72C 161.004,71.0826 154.671,71.5826 148.5,73.5C 146.448,74.0527 146.115,75.0527 147.5,76.5C 147.993,78.8056 148.326,81.139 148.5,83.5C 149.833,83.5 151.167,83.5 152.5,83.5C 153.372,89.1924 154.372,94.859 155.5,100.5C 155.833,103.167 156.167,105.833 156.5,108.5C 150.7,95.5596 144.866,82.5596 139,69.5C 134.411,77.7523 129.911,86.0856 125.5,94.5C 127.124,95.8689 127.624,97.5355 127,99.5C 123.903,102.418 121.07,105.418 118.5,108.5C 118.631,107.761 118.464,107.094 118,106.5C 116.16,107.833 115.66,107.666 116.5,106C 115.552,105.517 114.552,105.351 113.5,105.5C 117.276,104.106 120.609,101.939 123.5,99C 122.35,97.019 121.016,95.1857 119.5,93.5C 120.71,93.0679 121.71,92.4013 122.5,91.5C 123.376,91.6309 124.043,91.2975 124.5,90.5C 129.022,80.7823 134.022,71.449 139.5,62.5C 140.926,64.9372 142.259,67.4372 143.5,70C 144.833,70.1667 146.167,70.3333 147.5,70.5C 154.365,68.6088 161.365,68.1088 168.5,69C 170.899,69.7311 173.065,70.8978 175,72.5C 175.69,69.804 177.19,67.6374 179.5,66C 186.968,64.47 190.302,67.47 189.5,75C 188.057,87.1396 186.723,99.3063 185.5,111.5C 180.833,111.5 176.167,111.5 171.5,111.5C 171.5,109.5 171.5,107.5 171.5,105.5 Z M 170.5,93.5 C 167.065,95.5029 166.732,98.1695 169.5,101.5C 170.355,99.3923 171.022,97.2256 171.5,95C 171.43,94.2352 171.097,93.7352 170.5,93.5 Z"/></g>
<g><path style="opacity:1" fill="#696863" d="M 174.5,76.5 C 175.167,78.5 175.833,80.5 176.5,82.5C 175.058,83.8195 174.392,85.4862 174.5,87.5C 173.833,86.5 173.167,85.5 172.5,84.5C 174.226,82.1799 174.893,79.5133 174.5,76.5 Z"/></g>
<g><path style="opacity:1" fill="#f1c120" d="M 174.5,108.5 C 174.714,102.289 175.381,96.122 176.5,90C 176.316,88.6244 175.649,87.7911 174.5,87.5C 174.392,85.4862 175.058,83.8195 176.5,82.5C 179.5,81.8333 182.5,81.1667 185.5,80.5C 184.713,90.1577 184.046,99.8244 183.5,109.5C 180.287,109.81 177.287,109.477 174.5,108.5 Z"/></g>
<g><path style="opacity:1" fill="#8b7d42" d="M 148.5,73.5 C 147.89,74.391 147.557,75.391 147.5,76.5C 146.115,75.0527 146.448,74.0527 148.5,73.5 Z"/></g>
<g><path style="opacity:1" fill="#f1c120" d="M 174.5,76.5 C 174.893,79.5133 174.226,82.1799 172.5,84.5C 169.695,87.8306 166.528,90.8306 163,93.5C 163.042,97.6707 163.542,101.837 164.5,106C 162.954,108.386 160.954,108.886 158.5,107.5C 157.67,104.984 156.67,102.65 155.5,100.5C 154.372,94.859 153.372,89.1924 152.5,83.5C 151.167,83.5 149.833,83.5 148.5,83.5C 148.326,81.139 147.993,78.8056 147.5,76.5C 147.557,75.391 147.89,74.391 148.5,73.5C 154.671,71.5826 161.004,71.0826 167.5,72C 170.547,72.5158 172.88,74.0158 174.5,76.5 Z"/></g>
<g><path style="opacity:1" fill="#495f8d" d="M 161.5,80.5 C 163.429,80.2308 165.095,80.7308 166.5,82C 161.778,88.4331 160.111,87.9331 161.5,80.5 Z"/></g>
<g><path style="opacity:1" fill="#e9bb22" d="M 179.5,68.5 C 184.993,67.178 187.493,69.178 187,74.5C 179.642,78.5272 177.142,76.5272 179.5,68.5 Z"/></g>
<g><path style="opacity:1" fill="#586078" d="M 138.5,84.5 C 139.612,86.5994 140.279,88.9327 140.5,91.5C 139.167,91.5 137.833,91.5 136.5,91.5C 136.767,89.0347 137.434,86.7014 138.5,84.5 Z"/></g>
<g><path style="opacity:1" fill="#435682" d="M 105.5,85.5 C 108.157,85.162 110.49,85.8287 112.5,87.5C 109.833,90.5 107.167,93.5 104.5,96.5C 100.429,92.446 100.762,88.7793 105.5,85.5 Z"/></g>
<g><path style="opacity:1" fill="#efbf20" d="M 53.5,93.5 C 68.773,92.0287 73.273,98.3621 67,112.5C 60.7968,119.391 54.1302,120.058 47,114.5C 43.4722,105.647 45.6389,98.6468 53.5,93.5 Z"/></g>
<g><path style="opacity:1" fill="#415d93" d="M 29.5,88.5 C 37.7385,87.5579 40.5718,90.8912 38,98.5C 36.7365,100.607 34.9032,101.607 32.5,101.5C 31.0322,97.2939 30.0322,92.9606 29.5,88.5 Z"/></g>
<g><path style="opacity:0.716" fill="#26252c" d="M 33.5,91.5 C 36.7899,92.6562 37.2899,94.6562 35,97.5C 33.6814,95.7505 33.1814,93.7505 33.5,91.5 Z"/></g>
<g><path style="opacity:1" fill="#405d94" d="M 172.5,84.5 C 173.167,85.5 173.833,86.5 174.5,87.5C 175.649,87.7911 176.316,88.6244 176.5,90C 175.381,96.122 174.714,102.289 174.5,108.5C 173.833,106.5 173.167,104.5 172.5,102.5C 172.552,98.8019 172.886,95.1352 173.5,91.5C 171.064,91.317 168.897,91.9837 167,93.5C 167.175,98.8691 167.008,104.202 166.5,109.5C 164.023,110.146 162.356,111.646 161.5,114C 162.871,116.319 163.538,118.819 163.5,121.5C 158.483,122.503 153.483,122.503 148.5,121.5C 145.172,114.177 141.839,106.843 138.5,99.5C 134.965,103.909 132.465,108.909 131,114.5C 130.292,115.381 129.458,116.047 128.5,116.5C 124.295,116.283 120.295,115.617 116.5,114.5C 119.85,114.665 123.183,114.498 126.5,114C 129.898,108.819 132.731,103.319 135,97.5C 137.592,96.0183 139.925,96.3517 142,98.5C 144.558,105.282 147.391,111.949 150.5,118.5C 153.428,119.484 156.428,119.817 159.5,119.5C 158.699,115.765 157.699,112.099 156.5,108.5C 156.167,105.833 155.833,103.167 155.5,100.5C 156.67,102.65 157.67,104.984 158.5,107.5C 160.954,108.886 162.954,108.386 164.5,106C 163.542,101.837 163.042,97.6707 163,93.5C 166.528,90.8306 169.695,87.8306 172.5,84.5 Z M 170.5,93.5 C 167.065,95.5029 166.732,98.1695 169.5,101.5C 170.355,99.3923 171.022,97.2256 171.5,95C 171.43,94.2352 171.097,93.7352 170.5,93.5 Z"/></g>
<g><path style="opacity:1" fill="#4a608e" d="M 55.5,96.5 C 56.2389,96.369 56.9056,96.5357 57.5,97C 55.6775,101.846 57.3442,103.512 62.5,102C 63,101.5 63.5,101 64,100.5C 64.698,104.651 62.8646,106.984 58.5,107.5C 53.1494,105.087 52.1494,101.42 55.5,96.5 Z"/></g>
<g><path style="opacity:1" fill="#56626e" d="M 80.5,104.5 C 79.8333,108.833 79.1667,113.167 78.5,117.5C 78.1734,112.786 78.5067,108.12 79.5,103.5C 80.1067,103.624 80.44,103.957 80.5,104.5 Z"/></g>
<g><path style="opacity:0.291" fill="#242125" d="M 172.5,102.5 C 172.443,103.609 172.11,104.609 171.5,105.5C 170.833,107.5 170.167,109.5 169.5,111.5C 169.631,110.761 169.464,110.094 169,109.5C 167.261,111.283 165.428,112.95 163.5,114.5C 165.464,117.018 166.13,119.684 165.5,122.5C 159.657,124.465 153.657,124.965 147.5,124C 143.958,117.388 140.791,110.555 138,103.5C 135.484,108.531 132.984,113.531 130.5,118.5C 124.561,119.457 118.561,119.79 112.5,119.5C 112.504,123.605 110.504,125.105 106.5,124C 99.3242,119.912 91.9909,116.078 84.5,112.5C 83.8,116.041 83.1334,119.541 82.5,123C 77.5518,124.05 72.5518,124.55 67.5,124.5C 70.5917,123.816 73.5917,122.816 76.5,121.5C 78.4672,121.739 80.3005,121.406 82,120.5C 82.3333,116.833 82.6667,113.167 83,109.5C 91.8815,114.525 101.048,118.858 110.5,122.5C 110.174,118.116 110.508,113.783 111.5,109.5C 112.768,108.572 114.101,108.405 115.5,109C 114.039,111.421 112.706,113.921 111.5,116.5C 117.32,117.816 122.987,117.816 128.5,116.5C 129.458,116.047 130.292,115.381 131,114.5C 132.465,108.909 134.965,103.909 138.5,99.5C 141.839,106.843 145.172,114.177 148.5,121.5C 153.483,122.503 158.483,122.503 163.5,121.5C 163.538,118.819 162.871,116.319 161.5,114C 162.356,111.646 164.023,110.146 166.5,109.5C 167.008,104.202 167.175,98.8691 167,93.5C 168.897,91.9837 171.064,91.317 173.5,91.5C 172.886,95.1352 172.552,98.8019 172.5,102.5 Z M 170.5,93.5 C 167.065,95.5029 166.732,98.1695 169.5,101.5C 170.355,99.3923 171.022,97.2256 171.5,95C 171.43,94.2352 171.097,93.7352 170.5,93.5 Z"/></g>
</svg>
